<?xml version="1.0" standalone="no"?>
<!DOCTYPE svg PUBLIC "-//W3C//DTD SVG 20010904//EN"
 "http://www.w3.org/TR/2001/REC-SVG-20010904/DTD/svg10.dtd">
<svg version="1.0" xmlns="http://www.w3.org/2000/svg"
 width="256.000000pt" height="256.000000pt" viewBox="0 0 256.000000 256.000000"
 preserveAspectRatio="xMidYMid meet">
<metadata>
Created by potrace 1.11, written by Peter Selinger 2001-2013
</metadata>
<g transform="translate(0.000000,256.000000) scale(0.100000,-0.100000)"
fill="#000000" stroke="none">
<path d="M1120 2553 c-299 -49 -535 -164 -732 -355 -45 -43 -79 -80 -77 -82 3
-3 20 -1 39 3 19 4 59 7 88 7 44 -1 56 -6 75 -28 23 -27 84 -41 242 -54 65 -5
75 -3 146 30 78 36 189 70 269 82 52 7 183 7 220 -1 13 -2 41 -7 62 -10 55 -8
154 -43 223 -77 275 -138 462 -416 481 -718 5 -84 10 -101 39 -150 18 -30 48
-82 66 -115 17 -33 40 -71 49 -85 10 -14 44 -76 75 -139 64 -125 61 -124 97
-27 58 157 73 255 72 466 -1 265 -66 478 -214 698 -186 278 -470 466 -820 542
-53 12 -350 22 -400 13z"/>
<path d="M415 2103 c-131 -12 -205 -62 -205 -137 0 -135 234 -298 662 -462 95
-36 180 -67 188 -69 8 -2 47 -13 85 -24 105 -31 220 -38 296 -17 33 10 71 15
83 12 36 -9 58 -60 57 -133 -1 -78 -24 -134 -75 -185 l-38 -38 29 -12 c44 -18
172 -15 210 5 46 24 82 67 89 104 10 51 -34 112 -190 266 -147 146 -224 211
-291 245 -35 17 -44 18 -65 7 -74 -39 -151 -6 -166 71 -3 18 -11 37 -18 42 -6
5 -65 29 -131 52 -159 56 -169 60 -120 54 241 -31 463 -110 645 -230 96 -62
244 -209 303 -299 25 -38 54 -79 64 -90 10 -11 64 -76 118 -145 55 -69 102
-127 105 -130 3 -3 14 -16 25 -30 11 -14 -28 22 -86 80 -59 58 -120 113 -136
122 l-30 18 -13 -44 c-25 -89 -103 -135 -216 -129 l-61 3 -6 -42 c-13 -94
-112 -158 -196 -127 -30 12 -30 12 -35 -40 -14 -157 113 -279 320 -309 l49 -7
-55 -23 c-464 -186 -990 50 -1159 520 -45 125 -66 302 -47 403 18 102 20 93
-35 153 -108 118 -199 263 -199 319 0 103 -102 -120 -146 -319 -20 -89 -27
-347 -12 -438 18 -117 55 -243 98 -340 174 -391 540 -675 959 -745 135 -22
379 -14 507 19 247 62 442 172 618 350 l98 100 52 -18 c67 -24 143 -74 183
-120 18 -20 33 -35 33 -33 0 8 -33 105 -56 162 -119 309 -279 605 -439 814
-57 75 -125 164 -150 198 -68 92 -155 167 -240 207 -98 47 -169 120 -136 140
5 4 8 14 6 24 -2 9 -4 20 -4 24 -1 11 -51 34 -101 46 -72 17 -152 24 -319 27
-114 2 -179 8 -241 23 -47 11 -112 23 -145 27 -65 8 -62 7 -156 25 -52 9 -69
17 -79 35 -15 28 -45 41 -85 38z m-39 -77 c18 -14 18 -16 2 -32 -16 -16 -18
-16 -44 1 -26 17 -27 18 -9 31 23 17 27 17 51 0z"/>
<path d="M255 1753 c52 -124 179 -258 358 -377 93 -62 137 -84 232 -116 65
-22 121 -43 124 -46 3 -4 -5 -4 -19 0 -28 8 -52 13 -95 22 -16 3 -39 8 -50 11
-11 2 30 -20 92 -51 153 -77 268 -164 344 -262 45 -59 94 -87 142 -81 72 8
114 48 128 120 6 35 4 39 -22 52 -42 22 -43 31 -6 67 51 50 68 84 78 156 17
122 -15 165 -102 137 -54 -18 -138 -23 -209 -12 -210 32 -687 226 -880 357
-91 62 -65 33 43 -48 118 -89 255 -173 382 -233 115 -55 120 -62 14 -19 -90
37 -231 112 -325 172 -83 54 -224 166 -224 179 0 5 -5 9 -10 9 -6 0 -4 -16 5
-37z m775 -563 c19 -11 32 -19 29 -20 -11 0 -79 30 -79 35 0 9 14 5 50 -15z
m76 -36 c18 -14 18 -14 -6 -3 -31 14 -36 19 -24 19 6 0 19 -7 30 -16z m49 -24
c3 -6 -1 -7 -9 -4 -18 7 -21 14 -7 14 6 0 13 -4 16 -10z"/>
<path d="M1144 1759 c-33 -36 -1 -83 49 -71 41 10 25 89 -18 89 -8 0 -22 -8
-31 -18z"/>
</g>
</svg>
